<svg width="22" height="22" viewBox="0 0 22 22" fill="none" xmlns="http://www.w3.org/2000/svg">
<path fill-rule="evenodd" clip-rule="evenodd" d="M1.03026 11C1.03026 10.866 1.00426 10.732 0.952262 10.607L0.229262 8.86001C2.29478e-05 8.30559 -0.0598192 7.69569 0.0572903 7.1073C0.1744 6.5189 0.463211 5.97839 0.887262 5.55401C1.16826 5.27201 1.50326 5.04901 1.87126 4.89601L3.61526 4.17401C3.86726 4.06901 4.06926 3.86901 4.17426 3.61701L4.89626 1.87201C5.04873 1.50404 5.27217 1.16971 5.55385 0.888103C5.83552 0.606494 6.1699 0.383122 6.5379 0.230741C6.9059 0.0783603 7.30031 -4.56967e-05 7.69861 1.99807e-08C8.09691 4.57367e-05 8.4913 0.0785422 8.85926 0.231008L10.6023 0.953008C10.8553 1.05701 11.1393 1.05701 11.3923 0.953008L11.3943 0.951008L13.1383 0.231008C13.8814 -0.0762635 14.7162 -0.0759148 15.4591 0.231977C16.202 0.539869 16.7923 1.13011 17.1003 1.87301L17.8053 3.57601C17.8544 3.71051 17.931 3.83331 18.0301 3.9366C18.1293 4.0399 18.2489 4.12143 18.3813 4.17601L20.1263 4.89801C20.8692 5.20593 21.4593 5.79628 21.7671 6.53925C22.0748 7.28222 22.0749 8.11699 21.7673 8.86001L21.0453 10.605C20.9408 10.858 20.9408 11.142 21.0453 11.395L21.7673 13.14C22.0746 13.8831 22.0744 14.7177 21.7667 15.4606C21.459 16.2035 20.869 16.7939 20.1263 17.102L18.3813 17.825C18.2489 17.8796 18.1294 17.9612 18.0302 18.0645C17.931 18.1678 17.8544 18.2905 17.8053 18.425L17.1003 20.127C16.9479 20.4949 16.7246 20.8292 16.443 21.1108C16.1614 21.3924 15.8271 21.6158 15.4592 21.7682C15.0913 21.9206 14.6969 21.999 14.2987 21.999C13.9005 21.9989 13.5062 21.9205 13.1383 21.768L11.3943 21.048H11.3923C11.1393 20.9433 10.8552 20.9433 10.6023 21.048L8.85926 21.769C8.49131 21.9216 8.0969 22.0002 7.69857 22.0003C7.30023 22.0004 6.90577 21.9221 6.53774 21.7697C6.16971 21.6173 5.83531 21.3938 5.55366 21.1122C5.27201 20.8305 5.04862 20.4961 4.89626 20.128L4.17426 18.383C4.06866 18.1306 3.86728 17.9303 3.61426 17.826L1.87126 17.104C1.50309 16.9516 1.16854 16.7282 0.886747 16.4465C0.60495 16.1648 0.381422 15.8303 0.228935 15.4622C0.0764476 15.0941 -0.00200925 14.6995 -0.00195309 14.3011C-0.00189694 13.9026 0.0766712 13.5081 0.229262 13.14L0.951262 11.393C1.00326 11.267 1.03026 11.133 1.03026 11ZM15.2063 9.20701C15.3884 9.01841 15.4892 8.7658 15.4869 8.50361C15.4847 8.24141 15.3795 7.9906 15.1941 7.80519C15.0087 7.61978 14.7579 7.51461 14.4957 7.51233C14.2335 7.51006 13.9809 7.61085 13.7923 7.79301L9.99926 11.586L8.70626 10.293C8.51766 10.1108 8.26506 10.0101 8.00286 10.0123C7.74066 10.0146 7.48985 10.1198 7.30444 10.3052C7.11904 10.4906 7.01387 10.7414 7.01159 11.0036C7.00931 11.2658 7.1101 11.5184 7.29226 11.707L9.29226 13.707C9.47979 13.8945 9.7341 13.9998 9.99926 13.9998C10.2644 13.9998 10.5187 13.8945 10.7063 13.707L15.2063 9.20701Z" fill="#007AFF"/>
</svg>
