<svg width="24" height="24" viewBox="0 0 24 24" fill="none" xmlns="http://www.w3.org/2000/svg">
<path d="M1.5 11.5625C1.5 6.81899 1.5 4.44724 2.97362 2.97362C4.44724 1.5 6.81899 1.5 11.5625 1.5H12.4375C17.181 1.5 19.5528 1.5 21.0264 2.97362C22.5 4.44724 22.5 6.81899 22.5 11.5625V12.4375C22.5 17.181 22.5 19.5528 21.0264 21.0264C19.5528 22.5 17.181 22.5 12.4375 22.5H11.5625C6.81899 22.5 4.44724 22.5 2.97362 21.0264C1.5 19.5528 1.5 17.181 1.5 12.4375L1.5 11.5625Z" fill="#FF0058"/>
<path d="M1.5 11.5625C1.5 6.81899 1.5 4.44724 2.97362 2.97362C4.44724 1.5 6.81899 1.5 11.5625 1.5H12.4375C17.181 1.5 19.5528 1.5 21.0264 2.97362C22.5 4.44724 22.5 6.81899 22.5 11.5625V12.4375C22.5 17.181 22.5 19.5528 21.0264 21.0264C19.5528 22.5 17.181 22.5 12.4375 22.5H11.5625C6.81899 22.5 4.44724 22.5 2.97362 21.0264C1.5 19.5528 1.5 17.181 1.5 12.4375L1.5 11.5625Z" fill="url(#paint0_radial_3301_1570)"/>
<path d="M1.5 11.5625C1.5 6.81899 1.5 4.44724 2.97362 2.97362C4.44724 1.5 6.81899 1.5 11.5625 1.5H12.4375C17.181 1.5 19.5528 1.5 21.0264 2.97362C22.5 4.44724 22.5 6.81899 22.5 11.5625V12.4375C22.5 17.181 22.5 19.5528 21.0264 21.0264C19.5528 22.5 17.181 22.5 12.4375 22.5H11.5625C6.81899 22.5 4.44724 22.5 2.97362 21.0264C1.5 19.5528 1.5 17.181 1.5 12.4375L1.5 11.5625Z" fill="url(#paint1_radial_3301_1570)"/>
<path fill-rule="evenodd" clip-rule="evenodd" d="M17.3812 12.3749C17.3812 15.3473 14.9716 17.7569 11.9992 17.7569C9.02679 17.7569 6.61719 15.3473 6.61719 12.3749C6.61719 9.40248 9.02679 6.99288 11.9992 6.99288C14.9716 6.99288 17.3812 9.40248 17.3812 12.3749ZM14.8852 12.3749C14.8852 13.9688 13.5931 15.2609 11.9992 15.2609C10.4053 15.2609 9.11316 13.9688 9.11316 12.3749C9.11316 10.781 10.4053 9.48885 11.9992 9.48885C13.5931 9.48885 14.8852 10.781 14.8852 12.3749Z" fill="white"/>
<path d="M17.7712 7.92889C18.5036 7.92889 19.0972 7.33521 19.0972 6.60287C19.0972 5.87054 18.5036 5.27686 17.7712 5.27686C17.0389 5.27686 16.4452 5.87054 16.4452 6.60287C16.4452 7.33521 17.0389 7.92889 17.7712 7.92889Z" fill="white"/>
<defs>
<radialGradient id="paint0_radial_3301_1570" cx="0" cy="0" r="1" gradientUnits="userSpaceOnUse" gradientTransform="translate(4.875 26.25) rotate(-60.6808) scale(17.9813 29.4859)">
<stop stop-color="#FFF173"/>
<stop offset="0.270718" stop-color="#FFBE40"/>
<stop offset="0.548131" stop-color="#FF6230"/>
<stop offset="1" stop-color="#FF0000" stop-opacity="0"/>
</radialGradient>
<radialGradient id="paint1_radial_3301_1570" cx="0" cy="0" r="1" gradientUnits="userSpaceOnUse" gradientTransform="translate(6 -2.625) rotate(62.5603) scale(21.9719 57.6937)">
<stop offset="0.149575" stop-color="#306CFF"/>
<stop offset="1" stop-color="#F21269" stop-opacity="0"/>
</radialGradient>
</defs>
</svg>
