<svg width="20" height="20" viewBox="0 0 20 20" fill="none" xmlns="http://www.w3.org/2000/svg">
<path opacity="0.5" d="M19.1659 3.22217H5.52734L7.3454 12.1111H17.5242C17.7131 12.111 17.8964 12.0468 18.044 11.929C18.1916 11.8111 18.2948 11.6466 18.3367 11.4624L19.978 4.24022C20.027 4.02474 19.9884 3.79863 19.8706 3.61162C19.7529 3.42461 19.5657 3.29202 19.3503 3.243C19.2898 3.22913 19.2279 3.22214 19.1659 3.22217Z" fill="#007AFF"/>
<path d="M7.57361 13.2222H16.8938C17.0189 13.2222 17.1424 13.2504 17.2551 13.3047C17.3679 13.359 17.4669 13.4379 17.545 13.5357C17.623 13.6335 17.6781 13.7476 17.706 13.8696C17.7339 13.9916 17.734 14.1183 17.7063 14.2403L17.5146 15.0833C17.8864 15.2634 18.1912 15.5573 18.3848 15.9223C18.5784 16.2872 18.6507 16.7044 18.5912 17.1133C18.5318 17.5221 18.3436 17.9014 18.0541 18.1961C17.7645 18.4908 17.3886 18.6856 16.9809 18.7523C16.5731 18.819 16.1547 18.7541 15.7864 18.5669C15.418 18.3798 15.1189 18.0802 14.9323 17.7116C14.7456 17.343 14.6813 16.9245 14.7485 16.5169C14.8158 16.1092 15.0111 15.7336 15.3063 15.4444H8.02708C8.3181 15.7295 8.51225 16.0988 8.5821 16.5001C8.65196 16.9014 8.594 17.3146 8.41641 17.6812C8.23882 18.0478 7.95056 18.3494 7.59234 18.5434C7.23412 18.7374 6.82402 18.8139 6.41993 18.7623C6.01585 18.7106 5.63819 18.5334 5.34028 18.2555C5.04236 17.9777 4.83923 17.6133 4.75956 17.2138C4.67989 16.8143 4.72771 16.3999 4.89626 16.029C5.06482 15.6581 5.3456 15.3496 5.69896 15.1469L3.25972 3.22222H0.833333C0.61232 3.22222 0.400358 3.13442 0.244078 2.97814C0.0877974 2.82186 0 2.6099 0 2.38889L0 1.83333C0 1.61232 0.0877974 1.40036 0.244078 1.24408C0.400358 1.0878 0.61232 1 0.833333 1H4.3934C4.58517 1.00034 4.77094 1.06681 4.9194 1.1882C5.06785 1.30958 5.1699 1.47845 5.20833 1.66632L7.57361 13.2222Z" fill="#007AFF"/>
</svg>
