<svg width="24" height="24" viewBox="0 0 24 24" fill="none" xmlns="http://www.w3.org/2000/svg">
<path fill-rule="evenodd" clip-rule="evenodd" d="M9.65237 0.00146296C9.19534 -0.0119485 8.74013 0.0669577 8.31435 0.233754C7.88883 0.400551 7.50133 0.651853 7.17633 0.972555C6.85107 1.29339 6.59508 1.67698 6.42425 2.10003L0.241965 17.3999C-0.0791288 18.1947 -0.0806913 19.0813 0.237538 19.8771C0.555506 20.6728 1.16801 21.3154 1.94717 21.6754L5.78441 23.4482C6.53258 23.7941 7.34456 23.9815 8.1693 23.9987C8.99404 24.0159 9.81331 23.8625 10.5753 23.548L21.9248 18.8665C22.1763 18.7626 22.4133 18.6293 22.6315 18.4695C22.8003 18.346 22.9576 18.2066 23.1011 18.0531C23.43 17.7012 23.6792 17.2826 23.8307 16.8258C23.9826 16.3689 24.0331 15.8848 23.9789 15.4065C23.925 14.9283 23.7675 14.4676 23.5177 14.0557L17.7625 4.56083C17.1526 3.55328 16.2531 2.75107 15.1805 2.25576L10.9742 0.31253C10.5594 0.120734 10.1097 0.0150046 9.65237 0.00146296ZM8.89821 1.72347C9.12269 1.63545 9.36331 1.59365 9.60524 1.60081C9.8469 1.60797 10.0847 1.66396 10.3032 1.765L14.5097 3.70836C14.7599 3.82398 14.9972 3.96227 15.2185 4.12073L7.83258 22.3757C7.35628 22.3253 6.89118 22.1973 6.45576 21.9958L2.61826 20.2229C2.20759 20.0332 1.88832 19.6961 1.72321 19.2832C1.55811 18.8706 1.55915 18.4115 1.72556 17.9994L7.90784 2.69925C7.99664 2.47945 8.12998 2.27945 8.30003 2.11149C8.47008 1.94365 8.67373 1.81149 8.89821 1.72347ZM9.63362 22.1904L16.4162 5.42659L22.1495 14.8852C22.2414 15.0367 22.3091 15.2005 22.3508 15.3708C22.3682 15.4417 22.381 15.5137 22.3891 15.5863C22.4172 15.8339 22.3909 16.0845 22.3123 16.3215C22.2336 16.5585 22.1042 16.7766 21.932 16.9606C21.8055 17.0961 21.6578 17.2109 21.4948 17.3008C21.4365 17.333 21.3763 17.3619 21.3143 17.3875L9.96487 22.069C9.85602 22.1141 9.74534 22.1544 9.63362 22.1904Z" fill="#FF5C01"/>
<path d="M16.4162 5.42659L9.63362 22.1904C9.74534 22.1544 9.85602 22.1141 9.96487 22.069L21.3143 17.3875C21.3763 17.3619 21.4365 17.333 21.4948 17.3008C21.6578 17.2109 21.8055 17.0961 21.932 16.9606C22.1042 16.7766 22.2336 16.5585 22.3123 16.3215C22.3909 16.0845 22.4172 15.8339 22.3891 15.5863C22.381 15.5137 22.3682 15.4417 22.3508 15.3708C22.3091 15.2005 22.2414 15.0367 22.1495 14.8852L16.4162 5.42659Z" fill="#FF5C01"/>
<path fill-rule="evenodd" clip-rule="evenodd" d="M9.65237 0.00146296C9.19534 -0.0119485 8.74013 0.0669577 8.31435 0.233754C7.88883 0.400551 7.50133 0.651853 7.17633 0.972555C6.85107 1.29339 6.59508 1.67698 6.42425 2.10003L0.241965 17.3999C-0.0791288 18.1947 -0.0806913 19.0813 0.237538 19.8771C0.555506 20.6728 1.16801 21.3154 1.94717 21.6754L5.78441 23.4482C6.53258 23.7941 7.34456 23.9815 8.1693 23.9987C8.99404 24.0159 9.81331 23.8625 10.5753 23.548L21.9248 18.8665C22.1763 18.7626 22.4133 18.6293 22.6315 18.4695C22.8003 18.346 22.9576 18.2066 23.1011 18.0531C23.43 17.7012 23.6792 17.2826 23.8307 16.8258C23.9826 16.3689 24.0331 15.8848 23.9789 15.4065C23.925 14.9283 23.7675 14.4676 23.5177 14.0557L17.7625 4.56083C17.1526 3.55328 16.2531 2.75107 15.1805 2.25576L10.9742 0.31253C10.5594 0.120734 10.1097 0.0150046 9.65237 0.00146296ZM8.89821 1.72347C9.12269 1.63545 9.36331 1.59365 9.60524 1.60081C9.8469 1.60797 10.0847 1.66396 10.3032 1.765L14.5097 3.70836C14.7599 3.82398 14.9972 3.96227 15.2185 4.12073L7.83258 22.3757C7.35628 22.3253 6.89118 22.1973 6.45576 21.9958L2.61826 20.2229C2.20759 20.0332 1.88832 19.6961 1.72321 19.2832C1.55811 18.8706 1.55915 18.4115 1.72556 17.9994L7.90784 2.69925C7.99664 2.47945 8.12998 2.27945 8.30003 2.11149C8.47008 1.94365 8.67373 1.81149 8.89821 1.72347ZM9.63362 22.1904L16.4162 5.42659L22.1495 14.8852C22.2414 15.0367 22.3091 15.2005 22.3508 15.3708C22.3682 15.4417 22.381 15.5137 22.3891 15.5863C22.4172 15.8339 22.3909 16.0845 22.3123 16.3215C22.2336 16.5585 22.1042 16.7766 21.932 16.9606C21.8055 17.0961 21.6578 17.2109 21.4948 17.3008C21.4365 17.333 21.3763 17.3619 21.3143 17.3875L9.96487 22.069C9.85602 22.1141 9.74534 22.1544 9.63362 22.1904Z" fill="#6099FA"/>
<path d="M9.60524 1.60081C9.36331 1.59365 9.12269 1.63545 8.89821 1.72347C8.67373 1.81149 8.47008 1.94365 8.30003 2.11149C8.12998 2.27945 7.99664 2.47945 7.90784 2.69925L1.72556 17.9994C1.55915 18.4115 1.55811 18.8706 1.72321 19.2832C1.88832 19.6961 2.20759 20.0332 2.61826 20.2229L6.45576 21.9958C6.89118 22.1973 7.35628 22.3253 7.83258 22.3757L15.2185 4.12073C14.9972 3.96227 14.7599 3.82398 14.5097 3.70836L10.3032 1.765C10.0847 1.66396 9.8469 1.60797 9.60524 1.60081Z" fill="#6099FA"/>
<path fill-rule="evenodd" clip-rule="evenodd" d="M9.65237 0.00146296C9.19534 -0.0119485 8.74013 0.0669577 8.31435 0.233754C7.88883 0.400551 7.50133 0.651853 7.17633 0.972555C6.85107 1.29339 6.59508 1.67698 6.42425 2.10003L0.241965 17.3999C-0.0791288 18.1947 -0.0806913 19.0813 0.237538 19.8771C0.555506 20.6728 1.16801 21.3154 1.94717 21.6754L5.78441 23.4482C6.53258 23.7941 7.34456 23.9815 8.1693 23.9987C8.99404 24.0159 9.81331 23.8625 10.5753 23.548L21.9248 18.8665C22.1763 18.7626 22.4133 18.6293 22.6315 18.4695C22.8003 18.346 22.9576 18.2066 23.1011 18.0531C23.43 17.7012 23.6792 17.2826 23.8307 16.8258C23.9826 16.3689 24.0331 15.8848 23.9789 15.4065C23.925 14.9283 23.7675 14.4676 23.5177 14.0557L17.7625 4.56083C17.1526 3.55328 16.2531 2.75107 15.1805 2.25576L10.9742 0.31253C10.5594 0.120734 10.1097 0.0150046 9.65237 0.00146296ZM8.89821 1.72347C9.12269 1.63545 9.36331 1.59365 9.60524 1.60081C9.8469 1.60797 10.0847 1.66396 10.3032 1.765L14.5097 3.70836C14.7599 3.82398 14.9972 3.96227 15.2185 4.12073L7.83258 22.3757C7.35628 22.3253 6.89118 22.1973 6.45576 21.9958L2.61826 20.2229C2.20759 20.0332 1.88832 19.6961 1.72321 19.2832C1.55811 18.8706 1.55915 18.4115 1.72556 17.9994L7.90784 2.69925C7.99664 2.47945 8.12998 2.27945 8.30003 2.11149C8.47008 1.94365 8.67373 1.81149 8.89821 1.72347ZM9.63362 22.1904L16.4162 5.42659L22.1495 14.8852C22.2414 15.0367 22.3091 15.2005 22.3508 15.3708C22.3682 15.4417 22.381 15.5137 22.3891 15.5863C22.4172 15.8339 22.3909 16.0845 22.3123 16.3215C22.2336 16.5585 22.1042 16.7766 21.932 16.9606C21.8055 17.0961 21.6578 17.2109 21.4948 17.3008C21.4365 17.333 21.3763 17.3619 21.3143 17.3875L9.96487 22.069C9.85602 22.1141 9.74534 22.1544 9.63362 22.1904Z" fill="black"/>
</svg>
