<svg width="24" height="24" viewBox="0 0 24 24" fill="none" xmlns="http://www.w3.org/2000/svg">
<g clip-path="url(#clip0_1345_15331)">
<path d="M1.5 11.5625C1.5 6.81899 1.5 4.44724 2.97362 2.97362C4.44724 1.5 6.81899 1.5 11.5625 1.5H12.4375C17.181 1.5 19.5528 1.5 21.0264 2.97362C22.5 4.44724 22.5 6.81899 22.5 11.5625V12.4375C22.5 17.181 22.5 19.5528 21.0264 21.0264C19.5528 22.5 17.181 22.5 12.4375 22.5H11.5625C6.81899 22.5 4.44724 22.5 2.97362 21.0264C1.5 19.5528 1.5 17.181 1.5 12.4375L1.5 11.5625Z" fill="#2787F5"/>
<path d="M1.5 11.5625C1.5 6.81899 1.5 4.44724 2.97362 2.97362C4.44724 1.5 6.81899 1.5 11.5625 1.5H12.4375C17.181 1.5 19.5528 1.5 21.0264 2.97362C22.5 4.44724 22.5 6.81899 22.5 11.5625V12.4375C22.5 17.181 22.5 19.5528 21.0264 21.0264C19.5528 22.5 17.181 22.5 12.4375 22.5H11.5625C6.81899 22.5 4.44724 22.5 2.97362 21.0264C1.5 19.5528 1.5 17.181 1.5 12.4375L1.5 11.5625Z" fill="url(#paint0_linear_1345_15331)"/>
<path d="M5.47961 11.5931C9.30481 10.0055 11.8555 8.95882 13.1318 8.45312C16.7758 7.00926 17.533 6.75845 18.0265 6.75008C18.1351 6.74835 18.3778 6.77397 18.535 6.8955C18.6677 6.99811 18.7042 7.13672 18.7217 7.23401C18.7392 7.3313 18.761 7.55292 18.7437 7.72609C18.5462 9.70262 17.6917 14.4991 17.2571 16.7129C17.0731 17.6496 16.7109 17.9637 16.3603 17.9944C15.5983 18.0612 15.0197 17.5147 14.2817 17.0538C13.1268 16.3327 12.4744 15.8837 11.3534 15.18C10.0579 14.3667 10.8977 13.9198 11.636 13.1892C11.8292 12.9981 15.1866 10.089 15.2516 9.82507C15.2597 9.79206 15.2672 9.66903 15.1905 9.60407C15.1138 9.53911 15.0005 9.56132 14.9188 9.57899C14.803 9.60403 12.9581 10.7657 9.38409 13.0639C8.86042 13.4065 8.38609 13.5734 7.96111 13.5647C7.4926 13.555 6.59138 13.3123 5.92142 13.1048C5.09968 12.8504 4.44658 12.7159 4.50345 12.2837C4.53307 12.0586 4.85846 11.8284 5.47961 11.5931Z" fill="white"/>
</g>
<defs>
<linearGradient id="paint0_linear_1345_15331" x1="12" y1="1.5" x2="12" y2="22.3442" gradientUnits="userSpaceOnUse">
<stop stop-color="#2AABEE"/>
<stop offset="1" stop-color="#229ED9"/>
</linearGradient>
<clipPath id="clip0_1345_15331">
<rect width="21" height="21" fill="white" transform="translate(1.5 1.5)"/>
</clipPath>
</defs>
</svg>
