<svg width="24" height="24" viewBox="0 0 24 24" fill="none" xmlns="http://www.w3.org/2000/svg">
<g clip-path="url(#clip0_3301_687)">
<path d="M1.5 11.5625C1.5 6.81899 1.5 4.44724 2.97362 2.97362C4.44724 1.5 6.81899 1.5 11.5625 1.5H12.4375C17.181 1.5 19.5528 1.5 21.0264 2.97362C22.5 4.44724 22.5 6.81899 22.5 11.5625V12.4375C22.5 17.181 22.5 19.5528 21.0264 21.0264C19.5528 22.5 17.181 22.5 12.4375 22.5H11.5625C6.81899 22.5 4.44724 22.5 2.97362 21.0264C1.5 19.5528 1.5 17.181 1.5 12.4375L1.5 11.5625Z" fill="black"/>
<path fill-rule="evenodd" clip-rule="evenodd" d="M15.2903 9.74827C16.2049 10.371 17.3255 10.7375 18.5356 10.7375V8.51925C18.3065 8.51934 18.0781 8.49657 17.8541 8.45131V10.1974C16.644 10.1974 15.5237 9.83094 14.6088 9.20819V13.7349C14.6088 15.9994 12.6816 17.835 10.3045 17.835C9.41751 17.835 8.59307 17.5796 7.9082 17.1415C8.68985 17.9028 9.77987 18.3751 10.9858 18.3751C13.3632 18.3751 15.2904 16.5395 15.2904 14.2749V9.74827H15.2903ZM16.1311 7.51037C15.6637 7.02397 15.3568 6.39532 15.2903 5.70033V5.41504H14.6445C14.807 6.29832 15.3615 7.05296 16.1311 7.51037ZM9.41174 15.4039C9.15062 15.0777 9.00947 14.6787 9.0101 14.2684C9.0101 13.2327 9.89161 12.393 10.9791 12.393C11.1818 12.3929 11.3832 12.4225 11.5764 12.4809V10.2131C11.3507 10.1836 11.1229 10.1711 10.8951 10.1757V11.9409C10.7019 11.8825 10.5003 11.8529 10.2976 11.853C9.21008 11.853 8.32865 12.6927 8.32865 13.7285C8.32865 14.4609 8.76924 15.095 9.41174 15.4039Z" fill="#EE1D52"/>
<path fill-rule="evenodd" clip-rule="evenodd" d="M14.6091 9.20819C15.5239 9.83094 16.6443 10.1974 17.8543 10.1974V8.45131C17.1789 8.31432 16.581 7.97805 16.1313 7.51037C15.3618 7.05296 14.8073 6.29832 14.6448 5.41504H12.9483V14.2748C12.9445 15.3077 12.0645 16.1439 10.9793 16.1439C10.3398 16.1439 9.7717 15.8536 9.41193 15.4039C8.76943 15.095 8.32884 14.4609 8.32884 13.7285C8.32884 12.6927 9.21027 11.853 10.2978 11.853C10.5061 11.853 10.707 11.8839 10.8953 11.9409V10.1757C8.55991 10.2217 6.68164 12.0394 6.68164 14.2749C6.68164 15.3908 7.14939 16.4025 7.90847 17.1416C8.59334 17.5796 9.41778 17.8351 10.3047 17.8351C12.6819 17.8351 14.6091 15.9994 14.6091 13.735V9.20819Z" fill="white"/>
<path fill-rule="evenodd" clip-rule="evenodd" d="M17.8541 8.45127V7.97913C17.245 7.98001 16.6479 7.81752 16.1311 7.51025C16.5886 7.98732 17.191 8.31631 17.8541 8.45127ZM14.6446 5.415C14.629 5.3306 14.6171 5.24562 14.6089 5.16029V4.875H12.2665V13.7348C12.2628 14.7676 11.3828 15.6039 10.2976 15.6039C9.97893 15.6039 9.67815 15.5319 9.41173 15.4038C9.7715 15.8536 10.3396 16.1439 10.9791 16.1439C12.0642 16.1439 12.9443 15.3076 12.9481 14.2748V5.415H14.6446ZM10.8952 10.1757V9.67305C10.6995 9.64754 10.5022 9.6348 10.3046 9.6349C7.92716 9.6349 6 11.4706 6 13.7348C6 15.1545 6.75741 16.4055 7.90836 17.1415C7.14928 16.4024 6.68153 15.3907 6.68153 14.2748C6.68153 12.0393 8.55972 10.2217 10.8952 10.1757Z" fill="#69C9D0"/>
</g>
<defs>
<clipPath id="clip0_3301_687">
<rect width="21" height="21" fill="white" transform="translate(1.5 1.5)"/>
</clipPath>
</defs>
</svg>
