<svg width="24" height="24" viewBox="0 0 24 24" fill="none" xmlns="http://www.w3.org/2000/svg">
<g clip-path="url(#clip0_3301_849)">
<path d="M1.5 11.5625C1.5 6.81899 1.5 4.44724 2.97362 2.97362C4.44724 1.5 6.81899 1.5 11.5625 1.5H12.4375C17.181 1.5 19.5528 1.5 21.0264 2.97362C22.5 4.44724 22.5 6.81899 22.5 11.5625V12.4375C22.5 17.181 22.5 19.5528 21.0264 21.0264C19.5528 22.5 17.181 22.5 12.4375 22.5H11.5625C6.81899 22.5 4.44724 22.5 2.97362 21.0264C1.5 19.5528 1.5 17.181 1.5 12.4375L1.5 11.5625Z" fill="#2787F5"/>
<path d="M1.5 11.5625C1.5 6.81899 1.5 4.44724 2.97362 2.97362C4.44724 1.5 6.81899 1.5 11.5625 1.5H12.4375C17.181 1.5 19.5528 1.5 21.0264 2.97362C22.5 4.44724 22.5 6.81899 22.5 11.5625V12.4375C22.5 17.181 22.5 19.5528 21.0264 21.0264C19.5528 22.5 17.181 22.5 12.4375 22.5H11.5625C6.81899 22.5 4.44724 22.5 2.97362 21.0264C1.5 19.5528 1.5 17.181 1.5 12.4375L1.5 11.5625Z" fill="#25AAF7"/>
<path d="M18.75 7.70605C18.2531 7.93193 17.72 8.08511 17.1598 8.1535C17.7318 7.80212 18.1696 7.24478 18.3771 6.5827C17.8406 6.9081 17.2484 7.14439 16.6174 7.27248C16.1121 6.71946 15.3933 6.375 14.5961 6.375C13.0667 6.375 11.8266 7.64721 11.8266 9.21541C11.8266 9.43782 11.8511 9.65505 11.8983 9.86277C9.59701 9.74419 7.55636 8.61306 6.19059 6.89425C5.95185 7.31314 5.81603 7.80124 5.81603 8.32226C5.81603 9.30801 6.30532 10.1778 7.04769 10.6867C6.59383 10.6711 6.16696 10.543 5.79327 10.3301V10.3656C5.79327 11.7416 6.74822 12.8901 8.01444 13.1515C7.78245 13.2155 7.53781 13.251 7.28473 13.251C7.1059 13.251 6.93296 13.2328 6.76339 13.1982C7.116 14.3276 8.13845 15.1489 9.34986 15.1714C8.4025 15.933 7.20797 16.3857 5.91053 16.3857C5.68699 16.3857 5.46679 16.3718 5.25 16.3467C6.47574 17.1542 7.93095 17.625 9.49496 17.625C14.5894 17.625 17.3741 13.296 17.3741 9.54169L17.3648 9.17388C17.9089 8.77575 18.3797 8.27552 18.75 7.70605Z" fill="white"/>
</g>
<defs>
<clipPath id="clip0_3301_849">
<rect width="21" height="21" fill="white" transform="translate(1.5 1.5)"/>
</clipPath>
</defs>
</svg>
