<svg width="24" height="24" viewBox="0 0 24 24" fill="none" xmlns="http://www.w3.org/2000/svg">
<g clip-path="url(#clip0_3301_822)">
<path d="M1.5 11.5625C1.5 6.81899 1.5 4.44724 2.97362 2.97362C4.44724 1.5 6.81899 1.5 11.5625 1.5H12.4375C17.181 1.5 19.5528 1.5 21.0264 2.97362C22.5 4.44724 22.5 6.81899 22.5 11.5625V12.4375C22.5 17.181 22.5 19.5528 21.0264 21.0264C19.5528 22.5 17.181 22.5 12.4375 22.5H11.5625C6.81899 22.5 4.44724 22.5 2.97362 21.0264C1.5 19.5528 1.5 17.181 1.5 12.4375L1.5 11.5625Z" fill="#FF1F00"/>
<path d="M16.1625 11.8051C16.3125 11.8917 16.3125 12.1083 16.1625 12.1949L8.9625 16.3518C8.8125 16.4384 8.625 16.3301 8.625 16.1569L8.625 7.84308C8.625 7.66987 8.8125 7.56162 8.9625 7.64822L16.1625 11.8051Z" fill="white"/>
</g>
<defs>
<clipPath id="clip0_3301_822">
<rect width="21" height="21" fill="white" transform="translate(1.5 1.5)"/>
</clipPath>
</defs>
</svg>
